{"title":"Ice Age 3: Dawn of the (2009)(Dutch)(MPEG-4)(IPONE) 2Lions-Team","uid":5161869,"size":1104105922,"categoryP":"video","categoryS":"handheld","magnet":"?xt=urn:btih:ebfe401aff0644a8ab99ca92892cfdf630cf8349&amp;dn=Ice+Age+3%3A+Dawn+of+the+%282009%29%28Dutch%29%28MPEG-4%29%28IPONE%29+2Lions-Team&amp;tr=udp%3A%2F%2Ftracker.openbittorrent.com%3A80&amp;tr=udp%3A%2F%2Fopen.demonii.com%3A1337&amp;tr=udp%3A%2F%2Ftracker.coppersurfer.tk%3A6969&amp;tr=udp%3A%2F%2Fexodus.desync.com%3A6969","seeders":0,"leechers":0,"uploader":"Pioen","files":-1,"time":1258196439,"description":"Ice Age 3: Dawn of the (2009)Dutch 2Lions-Team MPEG-4 (IPONE) 2Lions-Team \n\n\n\n\nVanaf 24 november in de videotheek \n\n\n\nVerenigde Staten\nAnimatie / Komedie\n94 minuten\n\ngeregisseerd door Carlos Saldanha en Mike Thurmeier\nmet de stemmen van John Leguizamo, Denis Leary en Ray Romano\n\nIn dit nieuwe ''Ice Age avontuur'' jaagt Scrat nog steeds de beruchte eikel na, terwijl hij ondertussen misschien wel zijn ware liefde vindt. Daarnaast verwachten Manny en Ellie hun eerste baby-mammoet, probeert Sid een eigen familie te creÃƒÂ«ren door een paar dinosaurus-eieren te pikken en Diego vraagt zich af of hij door zijn zachtaardige vrienden niet te lief wordt voor een sabeltand-tijger. Op een missie om Sid te redden, komt de groep in een mysterieuze ondergrondse wereld terecht, waar ze middenin de tropische wildernis en tussen de dinosaurussen belanden. Hier ontmoeten ze de brute, eenogige dinosaurus-jager Buck de wezel.....\n\nEnglish\n\nAfter the events of &quot;Ice Age: The Meltdown&quot;, life begins to change for Manny and his friends: Scrat is still on the hunt to hold onto his beloved acorn, while finding a possible romance in a female sabre-toothed squirrel named Scratte. Manny and Ellie, having since become an item, are expecting a baby, which leaves Manny anxious to ensure that everything is perfect for when his baby arrives. Diego is fed up with being treated like a house-cat and ponders the notion that he is becoming too laid-back. Sid begins to wish for a family of his own, and so steals some dinosaur eggs which leads to Sid ending up in a strange underground world where his herd must rescue him, while dodging dinosaurs and facing danger left and right, and meeting up with a one-eyed weasel known as Buck who hunts dinosaurs intently\n\n\n\n\nBron : Retail\nAudio : Dutch\n\nFormat                           : MPEG-4\nFormat profile                   : Base Media\nCodec ID                         : isom\nFile size                        : 1.03 GiB\nDuration                         : 1h 30mn\nOverall bit rate                 : 1 632 Kbps\n\n\nVideo\nID                               : 1\nFormat                           : MPEG-4 Visual\nFormat profile                   : Simple@L1\nFormat settings, BVOP            : No\nFormat settings, QPel            : No\nFormat settings, GMC             : No warppoints\nFormat settings, Matrix          : Default (H.263)\nCodec ID                         : 20\nDuration                         : 1h 30mn\nBit rate mode                    : Variable\nBit rate                         : 1 499 Kbps\nWidth                            : 720 pixels\nHeight                           : 406 pixels\nDisplay aspect ratio             : 16/9\nFrame rate mode                  : Constant\nFrame rate                       : 25.000 fps\nResolution                       : 24 bits\nColorimetry                      : 4:2:0\nScan type                        : Progressive\nBits/(Pixel*Frame)               : 0.205\nStream size                      : 967 MiB (92%)\nWriting library                  : Lavc51.40.4\n\n\nAudio\nID                               : 2\nFormat                           : AAC\nFormat/Info                      : Advanced Audio Codec\nFormat version                   : Version 4\nFormat profile                   : LC\nFormat settings, SBR             : No\nCodec ID                         : 40\nDuration                         : 1h 30mn\nBit rate mode                    : Variable\nBit rate                         : 128 Kbps\nChannel(s)                       : 2 channels\nChannel positions                : L R\nSampling rate                    : 48.0 KHz\nResolution                       : 16 bits\nStream size                      : 82.5 MiB (8%)\n\nGenre : Animatie\nKomedie \n\nWeblink : http://www.moviemeter.nl/film/49071 \nWeblink : http://www.imdb.com/title/tt1080016\n\n***************************************** \n\nBrought to you by \nPioen \n2Lions Team \n\n\n\nmeer zien?? \nKom dan eens kijken op ons forum \n           &lt;a href=&quot;\nhttp://www.2lions.ons-forum.nl&quot; rel=&quot;nofollow&quot; target=&quot;_NEW&quot;&gt;\nhttp://www.2lions.ons-forum.nl&lt;/a&gt; \n\n2Lions-Team for all your Dutch MOVIES and more \n\n***************************************** \n\nDON T HIT AND RUN Niet gelijk afhaken als de film binnen is blijf seeden.","torrent":{"xt":"urn:btih:ebfe401aff0644a8ab99ca92892cfdf630cf8349","amp;dn":"Ice+Age+3%3A+Dawn+of+the+%282009%29%28Dutch%29%28MPEG-4%29%28IPONE%29+2Lions-Team","amp;tr":["udp%3A%2F%2Ftracker.openbittorrent.com%3A80","udp%3A%2F%2Fopen.demonii.com%3A1337","udp%3A%2F%2Ftracker.coppersurfer.tk%3A6969","udp%3A%2F%2Fexodus.desync.com%3A6969"],"infoHash":"ebfe401aff0644a8ab99ca92892cfdf630cf8349","infoHashBuffer":{"type":"Buffer","data":[235,254,64,26,255,6,68,168,171,153,202,146,137,44,253,246,48,207,131,73]},"announce":[],"urlList":[]}}